<?xml version="1.0" encoding="UTF-8" standalone="no"?>
<!-- Created with Inkscape (http://www.inkscape.org/) -->

<svg
   xmlns:dc="http://purl.org/dc/elements/1.1/"
   xmlns:cc="http://creativecommons.org/ns#"
   xmlns:rdf="http://www.w3.org/1999/02/22-rdf-syntax-ns#"
   xmlns:svg="http://www.w3.org/2000/svg"
   xmlns="http://www.w3.org/2000/svg"
   xmlns:sodipodi="http://sodipodi.sourceforge.net/DTD/sodipodi-0.dtd"
   xmlns:inkscape="http://www.inkscape.org/namespaces/inkscape"
   id="svg31445"
   version="1.1"
   inkscape:version="0.48.5 r10040"
   width="1000"
   height="264.35236"
   xml:space="preserve"
   sodipodi:docname="Empire.pdf"><metadata
     id="metadata31451"><rdf:RDF><cc:Work
         rdf:about=""><dc:format>image/svg+xml</dc:format><dc:type
           rdf:resource="http://purl.org/dc/dcmitype/StillImage" /><dc:title></dc:title></cc:Work></rdf:RDF></metadata><defs
     id="defs31449"><clipPath
       clipPathUnits="userSpaceOnUse"
       id="clipPath31459"><path
         d="m 285,40.5 1715,0 0,1169 -1715,0 0,-1169 z"
         id="path31461"
         inkscape:connector-curvature="0" /></clipPath><clipPath
       clipPathUnits="userSpaceOnUse"
       id="clipPath31473"><path
         d="m 0,0 2000,0 0,1250 L 0,1250 0,0 z"
         id="path31475"
         inkscape:connector-curvature="0" /></clipPath><clipPath
       clipPathUnits="userSpaceOnUse"
       id="clipPath31481"><path
         d="m 1646.23,910.246 166.78,0 0,-172.162 -166.78,0 0,172.162 z"
         id="path31483"
         inkscape:connector-curvature="0" /></clipPath><clipPath
       clipPathUnits="userSpaceOnUse"
       id="clipPath31501"><path
         d="m 0,0 2000,0 0,1250 L 0,1250 0,0 z"
         id="path31503"
         inkscape:connector-curvature="0" /></clipPath><clipPath
       clipPathUnits="userSpaceOnUse"
       id="clipPath31509"><path
         d="m 1602.9,1113 302.41,0 0,-305.951 -302.41,0 0,305.951 z"
         id="path31511"
         inkscape:connector-curvature="0" /></clipPath><clipPath
       clipPathUnits="userSpaceOnUse"
       id="clipPath31607"><path
         d="m 0,0 2000,0 0,1250 L 0,1250 0,0 z"
         id="path31609"
         inkscape:connector-curvature="0" /></clipPath><clipPath
       clipPathUnits="userSpaceOnUse"
       id="clipPath31615"><path
         d="m 1451.18,1013.17 301.06,0 0,-306.114 -301.06,0 0,306.114 z"
         id="path31617"
         inkscape:connector-curvature="0" /></clipPath><clipPath
       clipPathUnits="userSpaceOnUse"
       id="clipPath31651"><path
         d="m 0,0 2000,0 0,1250 L 0,1250 0,0 z"
         id="path31653"
         inkscape:connector-curvature="0" /></clipPath></defs><sodipodi:namedview
     pagecolor="#ffffff"
     bordercolor="#666666"
     borderopacity="1"
     objecttolerance="10"
     gridtolerance="10"
     guidetolerance="10"
     inkscape:pageopacity="0"
     inkscape:pageshadow="2"
     inkscape:window-width="1066"
     inkscape:window-height="1026"
     id="namedview31447"
     showgrid="false"
     fit-margin-left="0.5"
     fit-margin-bottom="0.5"
     fit-margin-top="0.5"
     fit-margin-right="0.5"
     inkscape:zoom="0.60084631"
     inkscape:cx="466.43189"
     inkscape:cy="171.03145"
     inkscape:window-x="842"
     inkscape:window-y="-11"
     inkscape:window-maximized="0"
     inkscape:current-layer="g31453" /><g
     id="g31453"
     inkscape:groupmode="layer"
     inkscape:label="Empire"
     transform="matrix(1.25,0,0,-1.25,-391.37221,970.47515)"><g
       id="g31647"
       style="fill:#e11f27;fill-opacity:1"
       transform="matrix(1.4502879,0,0,1.4502879,243.8838,-625.94082)"><g
         id="g31649"
         clip-path="url(#clipPath31651)"
         style="fill:#e11f27;fill-opacity:1"><g
           id="g31655"
           transform="translate(548.3721,940.8551)"
           style="fill:#e11f27;fill-opacity:1"><path
             d="m 0,0 50.49,0 -2.825,23.662 -77.016,0 -0.191,-140.303 76.396,0.008 3.837,23.08 -50.468,0 0,44.661 37.702,0 0,23.315 L 0,-25.577 0,0 z m -36.752,-106.665 -36.358,27.811 c 0,0 35.845,10.884 34.804,45.667 -0.818,17.609 -7.217,30.997 -27.086,42.491 -21.562,12.472 -64.939,14.589 -64.939,14.589 l 0.094,-140.466 30.017,0 0,27.738 38.173,-28.467 25.295,10.637 z m -42.721,48.801 c -11.733,-4.954 -21.073,-7.448 -21.073,-7.448 l 0,62.424 c 0,0 10.918,-0.978 20.867,-5.821 10.084,-4.908 16.68,-14.3 16.68,-24.192 0,-12.031 -4.922,-20.088 -16.474,-24.963 m -91.21,-58.795 29.846,0 -0.012,140.552 -29.847,0 0.013,-140.552 z m -7.395,83.194 c -0.52,17.09 -7.418,31.244 -25.923,42.681 -21.848,13.503 -65.749,14.677 -65.749,14.677 l -0.033,-140.387 29.968,0 0,27.788 c 0,0 23.743,5.603 40.529,16.791 15.243,10.162 21.703,22.172 21.208,38.45 m -24.433,-0.82 c 0,-9.493 -3.964,-16.321 -12.617,-21.472 -10.511,-6.256 -24.965,-9.555 -24.965,-9.555 l 0,62.424 c 0,0 15.187,-0.977 25.865,-8.922 8.065,-6.001 11.717,-13.892 11.717,-22.475 m -104.992,-82.285 29.818,0.286 -9.027,142.079 -57.863,-96.045 -60.282,95.759 -9.026,-142.079 29.858,0.098 2.816,49.821 35.966,-52.823 34.696,52.164 3.044,-49.26 z m -163.105,23.017 0,44.216 37.702,0 0,23.316 -37.924,0 0,26.021 50.491,0 -2.825,23.662 -77.018,0 -0.19,-140.303 76.396,0.008 3.837,23.08 -50.469,0 z"
             style="fill:#e11f27;fill-opacity:1;fill-rule:nonzero;stroke:none"
             id="path31657"
             inkscape:connector-curvature="0" /></g></g></g></g></svg>